<svg width="630" height="630" viewBox="0 0 630 630" fill="none" xmlns="http://www.w3.org/2000/svg">
<rect width="630" height="630" fill="#0E1A26"/>
<path d="M89.5033 352C89.5033 352 89.5349 352 89.5454 352C88.9294 352 88.3239 351.984 87.7185 351.963C88.3081 351.984 88.8978 352 89.4981 352H89.5033Z" fill="#57E49E"/>
<path d="M112.111 312.296H86.2651V325.773H108.305C107.926 327.259 107.31 328.64 106.499 329.902C103.377 334.797 97.2532 337.878 89.5978 337.878C83.1165 337.878 77.7462 335.678 73.5762 331.184C69.4116 326.69 67.2792 321.279 67.2792 314.955C67.2792 308.631 69.4116 303.032 73.7605 298.631C78.1147 294.231 83.3903 292.031 89.5978 292.031C94.8787 292.031 99.0434 293.314 102.192 295.884C103.492 296.88 104.624 297.949 105.609 299.09C107.231 300.748 108.542 302.531 109.542 304.444C110.8 306.853 111.569 309.475 111.864 312.296H112.117C112.359 308.719 113.07 305.341 114.254 302.161C115.491 298.861 117.234 295.769 119.488 292.881C117.387 289.774 114.533 286.891 110.9 284.237C110.279 283.784 109.631 283.361 108.979 282.96C104.735 280.473 100.065 278.919 94.9629 278.309C94.4048 278.247 93.8467 278.184 93.2729 278.143C93.0201 278.122 92.7621 278.106 92.5042 278.091C91.6249 278.038 90.7404 278.007 89.8295 278.007C79.3783 278.018 70.5067 281.589 63.1146 288.825C55.7066 296.066 52 304.778 52 315.049C52 325.319 55.6118 334.119 62.925 341.272C69.8223 348.013 78.0358 351.574 87.7235 351.96C88.3237 351.981 88.9344 351.996 89.5452 351.996C89.74 351.996 89.9295 351.986 90.1243 351.986C90.6087 351.981 91.0879 351.97 91.567 351.949C91.9934 351.929 92.4199 351.897 92.8411 351.866C93.0675 351.85 93.2992 351.835 93.5256 351.814C94.0205 351.767 94.5101 351.715 94.9945 351.647C95.1262 351.631 95.2578 351.611 95.3894 351.595C95.9422 351.517 96.4898 351.433 97.0321 351.329C97.0479 351.329 97.069 351.324 97.0848 351.319C99.9016 350.792 102.587 349.953 105.135 348.816C105.483 348.66 105.83 348.503 106.167 348.336C106.267 348.29 106.367 348.237 106.467 348.185C107.81 347.497 109.1 346.705 110.337 345.824V349.828H123.947V312.296H112.106H112.111Z" fill="#57E49E"/>
<path d="M176.366 288.635C169.147 281.576 160.349 278 149.882 278C139.415 278 130.528 281.576 123.12 288.823C121.92 289.996 120.83 291.211 119.824 292.462C119.714 292.603 119.592 292.738 119.487 292.879C117.228 295.767 115.486 298.859 114.254 302.159C113.064 305.339 112.353 308.718 112.116 312.294H123.957V317.888C123.957 325.041 122.288 331.276 118.955 336.594C118.94 336.62 118.924 336.641 118.908 336.662C119.108 336.933 119.313 337.199 119.524 337.465C120.556 338.778 121.688 340.045 122.941 341.27C130.259 348.423 139.052 352 149.519 352C159.986 352 168.873 348.423 176.192 341.177C183.6 333.935 187.301 325.036 187.301 314.677C187.301 304.317 183.689 295.694 176.376 288.635H176.366ZM165.53 331C161.176 335.4 155.9 337.6 149.693 337.6C143.485 337.6 138.21 335.4 133.856 331C129.501 326.506 127.374 321.188 127.374 314.953C127.374 308.718 129.507 303.4 133.856 299C138.21 294.6 143.485 292.4 149.693 292.4C155.9 292.4 161.176 294.6 165.53 299C169.879 303.4 172.011 308.718 172.011 314.953C172.011 321.188 169.879 326.506 165.53 331Z" fill="#57E49E"/>
<path d="M112.112 312.294H86.2653V325.771H108.305C108.131 326.464 107.894 327.126 107.62 327.773C106.625 329.545 105.425 331.235 104.035 332.83C103.556 333.377 103.061 333.919 102.534 334.446C96.6954 340.379 89.4928 343.304 81.0003 343.304C72.5077 343.304 65.0787 340.301 59.0871 334.295C57.1917 332.418 55.5963 330.406 54.3064 328.273C56.1123 333.07 58.9765 337.397 62.9306 341.265C69.8278 348.006 78.0413 351.567 87.729 351.958C88.3292 351.979 88.94 351.994 89.556 351.994C89.7508 351.994 89.9404 351.984 90.1352 351.984C90.6196 351.979 91.0987 351.968 91.5778 351.948C92.0043 351.927 92.4307 351.895 92.8519 351.864C93.0783 351.848 93.31 351.833 93.5364 351.812C94.0313 351.765 94.521 351.713 95.0054 351.645C95.137 351.63 95.2686 351.609 95.4002 351.593C95.9531 351.515 96.5006 351.431 97.0429 351.327C97.0587 351.327 97.0798 351.322 97.0956 351.317C99.9124 350.79 102.598 349.951 105.146 348.814C105.493 348.658 105.841 348.501 106.178 348.335C106.278 348.288 106.378 348.236 106.478 348.183C107.821 347.495 109.11 346.703 110.348 345.822V349.826H123.958V312.294H112.117H112.112Z" fill="url(#paint0_linear_1_23)"/>
<path d="M87.7235 351.963C88.3237 351.984 88.9344 352 89.5505 352C89.7453 352 89.9348 351.99 90.1296 351.99C90.614 351.984 91.0931 351.974 91.5722 351.953C91.9987 351.932 92.4252 351.901 92.8464 351.87C93.0728 351.854 93.3044 351.838 93.5308 351.817C94.0258 351.771 94.5154 351.718 94.9998 351.651C95.1314 351.635 95.2631 351.614 95.3947 351.599C95.9475 351.52 96.4951 351.437 97.0374 351.333C97.0532 351.333 97.0742 351.327 97.09 351.322C99.9068 350.796 102.592 349.956 105.14 348.82C105.488 348.663 105.835 348.507 106.172 348.34C106.272 348.293 106.372 348.241 106.472 348.189C107.815 347.501 109.105 346.708 110.342 345.827V349.831H123.952V317.883C123.952 317.883 123.952 315.553 123.952 312.289C121.815 321.35 114.896 335.828 100.902 344.154C85.27 353.455 61.0559 343.335 54.3008 328.274C56.1068 333.07 58.971 337.397 62.925 341.265C69.8223 348.006 78.0358 351.567 87.7235 351.953V351.963Z" fill="url(#paint1_linear_1_23)"/>
<path d="M199.236 294.175C205.054 288.414 212.125 285.573 220.449 285.573C226.267 285.573 231.643 287.106 236.434 290.093C241.294 293.086 244.684 297.241 246.601 302.418L235.697 307.376C233.27 301.031 227.526 297.095 220.376 297.095C215.442 297.095 211.241 298.846 207.929 302.272C204.612 305.702 202.922 309.93 202.922 314.888C202.922 319.846 204.544 324.226 207.855 327.724C211.172 331.154 215.295 332.901 220.376 332.901C227.447 332.901 233.265 328.673 235.844 322.328L246.817 327.359C244.906 332.609 241.441 336.769 236.434 339.829C231.501 342.822 226.051 344.349 220.228 344.349C211.836 344.349 204.759 341.581 199.089 335.961C193.419 330.346 190.544 323.344 190.544 315.029C190.544 306.714 193.413 299.858 199.236 294.17V294.175Z" fill="white"/>
<path d="M254.114 309.638C258.316 305.702 263.47 303.731 269.435 303.731C275.401 303.731 280.482 305.702 284.609 309.565C288.732 313.433 290.796 318.172 290.796 323.933C290.796 329.694 288.732 334.652 284.536 338.588C280.339 342.457 275.253 344.422 269.288 344.422C263.323 344.422 258.168 342.524 254.04 338.661C249.918 334.798 247.854 329.986 247.854 324.152C247.854 318.318 249.918 313.506 254.114 309.638V309.638ZM262.438 331.227C264.281 333.052 266.634 333.995 269.362 333.995C274.885 333.995 279.013 329.84 279.013 324.006C279.013 321.165 278.054 318.756 276.212 316.932C274.374 315.039 272.015 314.09 269.288 314.09C266.561 314.09 264.281 315.039 262.438 316.932C260.595 318.756 259.642 321.165 259.642 324.006C259.642 326.848 260.601 329.329 262.438 331.227Z" fill="white"/>
<path d="M329.763 321.816V343.551H318.348V321.962C318.348 316.931 316.21 314.377 311.94 314.377C307.302 314.377 304.943 317.369 304.943 321.962V343.551H293.455V304.602H304.722V309.705H304.869C307.007 305.91 311.646 303.726 316.358 303.726C321.807 303.726 325.64 305.769 327.846 309.924C331.679 305.623 335.359 303.726 340.882 303.726C350.091 303.726 354.73 309.851 354.73 319.262V343.546H343.241V321.811C343.241 316.853 341.104 314.372 336.834 314.372C332.343 314.372 329.763 317.213 329.763 321.811V321.816Z" fill="white"/>
<path d="M395.765 321.816V343.551H384.351V321.962C384.351 316.931 382.213 314.377 377.943 314.377C373.305 314.377 370.946 317.369 370.946 321.962V343.551H359.458V304.602H370.725V309.705H370.872C373.01 305.91 377.648 303.726 382.361 303.726C387.81 303.726 391.643 305.769 393.849 309.924C397.682 305.623 401.362 303.726 406.885 303.726C416.094 303.726 420.732 309.851 420.732 319.262V343.546H409.244V321.811C409.244 316.853 407.106 314.372 402.836 314.372C398.345 314.372 395.765 317.213 395.765 321.811V321.816Z" fill="white"/>
<path d="M436.575 327.212C437.238 331.951 441.361 334.871 446.3 334.871C449.764 334.871 453.297 333.046 455.066 330.205L463.385 335.601C460.073 341.507 454.476 344.427 446.447 344.427C440.334 344.427 435.253 342.529 431.052 338.739C426.929 334.876 424.866 329.991 424.866 324.011C424.866 318.396 426.929 313.652 430.978 309.643C435.101 305.634 440.039 303.663 445.71 303.663C451.38 303.663 456.24 305.488 459.852 309.059C463.458 312.635 465.301 317.374 465.301 323.135C465.301 324.96 465.228 326.347 465.154 327.223H436.575V327.212ZM453.808 319.7C453.513 316.269 450.643 312.917 445.415 312.917C443.056 312.917 441.071 313.647 439.523 315.174C437.976 316.634 437.091 318.167 436.87 319.7H453.808V319.7Z" fill="white"/>
<path d="M494.696 315.691C493.811 315.545 492.927 315.472 491.969 315.472C484.529 315.472 481.291 320.065 481.291 327.067V343.546H469.803V304.602H481.217V310.582H481.291C482.986 307.011 487.183 304.164 492.411 304.164C493.369 304.164 494.106 304.237 494.696 304.456V315.686V315.691Z" fill="white"/>
<path d="M501.993 338.661C498.013 334.798 496.028 329.986 496.028 324.152C496.028 318.318 498.092 313.579 502.214 309.638C506.342 305.702 511.349 303.731 517.241 303.731C526.002 303.731 533.226 308.105 535.8 315.764L525.707 319.919C524.017 316.056 521.142 314.158 517.241 314.158C511.939 314.158 507.811 317.953 507.811 324.006C507.811 330.059 511.639 333.922 517.241 333.922C521.363 333.922 524.238 332.03 525.928 328.161L536.095 332.317C533.073 340.267 525.928 344.422 517.167 344.422C511.054 344.422 505.974 342.524 501.993 338.661V338.661Z" fill="white"/>
<path d="M549.279 327.212C549.942 331.951 554.065 334.871 559.003 334.871C562.468 334.871 566.001 333.046 567.764 330.205L576.089 335.601C572.772 341.507 567.18 344.427 559.151 344.427C553.038 344.427 547.957 342.529 543.756 338.739C539.633 334.876 537.569 329.991 537.569 324.011C537.569 318.396 539.633 313.652 543.682 309.643C547.805 305.634 552.743 303.663 558.408 303.663C564.074 303.663 568.939 305.488 572.55 309.059C576.162 312.635 578 317.374 578 323.135C578 324.96 577.926 326.347 577.852 327.223H549.274L549.279 327.212ZM566.511 319.7C566.217 316.269 563.342 312.917 558.114 312.917C555.76 312.917 553.77 313.647 552.222 315.174C550.674 316.634 549.795 318.167 549.574 319.7H566.511V319.7Z" fill="white"/>
<defs>
<linearGradient id="paint0_linear_1_23" x1="80.1105" y1="320.161" x2="121.899" y2="343.901" gradientUnits="userSpaceOnUse">
<stop offset="0.16" stop-color="#00B0BD"/>
<stop offset="0.19" stop-color="#00AAB9"/>
<stop offset="0.62" stop-color="#026B8D"/>
<stop offset="0.82" stop-color="#04537D"/>
</linearGradient>
<linearGradient id="paint1_linear_1_23" x1="80.1102" y1="320.161" x2="130.011" y2="348.51" gradientUnits="userSpaceOnUse">
<stop offset="0.18" stop-color="#04537D"/>
<stop offset="0.36" stop-color="#026B8D"/>
<stop offset="0.76" stop-color="#00AAB9"/>
<stop offset="0.79" stop-color="#00B0BD"/>
</linearGradient>
</defs>
</svg>
